<svg xmlns="http://www.w3.org/2000/svg" viewBox="0 0 512 512">
  <defs>
    <linearGradient id="bg" x1="0%" y1="0%" x2="100%" y2="100%">
      <stop offset="0%" style="stop-color:#667eea"/>
      <stop offset="100%" style="stop-color:#764ba2"/>
    </linearGradient>
  </defs>
  <rect width="512" height="512" rx="96" fill="url(#bg)"/>
  <g fill="#fff">
    <path d="M200 136v180c-12-8-26-12-42-12-35 0-64 24-64 54s29 54 64 54 64-24 64-54V196h106v-60H200z"/>
    <circle cx="158" cy="358" r="42"/>
    <ellipse cx="348" cy="220" rx="56" ry="54"/>
    <path d="M348 136v84c-12-8-26-12-42-12-31 0-56 22-56 48s25 48 56 48c18 0 34-7 44-18v-150h-2z"/>
  </g>
</svg>
